<?xml version="1.0" encoding="UTF-8"?>
<svg width="274px" height="52px" viewBox="0 0 274 52" version="1.1" xmlns="http://www.w3.org/2000/svg" xmlns:xlink="http://www.w3.org/1999/xlink">
    <title>Artboard</title>
    <g id="Artboard" stroke="none" stroke-width="1" fill="none" fill-rule="evenodd">
        <g id="TURCK-Stand-alone-Logo-Claim" transform="translate(0.261, -0.0037)" fill="currentColor" fill-rule="nonzero">
            <g id="Gruppe_2" transform="translate(0, 0)">
                <path d="M215.911,16.2886993 C214.018,23.3416993 203.9,27.8556993 189.361,27.3166993 C173.289,27.8556993 162.272,22.1676993 162.272,13.8456993 C162.272,5.52369927 173.29,-0.344300734 189.361,0.0156992662 C203.9,-0.259300734 214.008,4.53069927 215.911,11.5826993 L194.235,11.5826993 C193.281239,9.77991389 191.400416,8.66083611 189.361,8.68269927 C187.425022,8.58628207 185.593382,9.56425601 184.596483,11.2266334 C183.599584,12.8890108 183.599584,14.9653877 184.596483,16.6277651 C185.593382,18.2901425 187.425022,19.2681165 189.361,19.1716993 C191.401652,19.1981631 193.284692,18.0777657 194.235,16.2716993 L215.911,16.2716993 L215.911,16.2886993 Z" id="Pfad_1"></path>
                <path d="M150.45,14.3006993 L162.55,26.1426993 L137.984,26.1426993 L130.308,18.0966993 L133.924,18.0966993 C136.352056,18.1064249 138.34999,16.1881431 138.439,13.7616993 C138.41067,11.3128056 136.456913,9.32156124 134.009,9.24669927 L128.955,9.24669927 L128.955,26.1466993 L108.093,26.1466993 L108.093,1.28469927 L153.157,1.28469927 C154.946214,1.26386735 156.669422,1.95958878 157.942631,3.21683101 C159.21584,4.47407324 159.933252,6.18836528 159.935,7.97769927 C159.935,11.5936993 157.048,14.3006993 153.157,14.3006993 L150.45,14.3006993 Z" id="Pfad_2"></path>
                <path d="M73.602,1.28469927 L73.602,10.7746993 C73.702,14.9296993 76.129,16.0186993 78.931,16.0186993 C81.733,16.0186993 84.44,14.5696993 84.165,10.7746993 L84.165,1.28469927 L104.297,1.28469927 L104.297,15.9286993 C103.758,23.2456993 93.554,27.7706993 78.921,27.3166993 C63.843,27.7746993 53.46,22.8866993 53.46,15.0306993 L53.46,1.29569927 L73.592,1.29569927 L73.602,1.28469927 Z" id="Pfad_3"></path>
                <polygon id="Pfad_4" points="0 1.28469927 49.759 1.28469927 49.759 13.4846993 35.136 13.4846993 35.136 26.1426993 14.636 26.1426993 14.636 13.4866993 0 13.4866993"></polygon>
                <polygon id="Pfad_5" points="219.167 1.28469927 219.167 26.1426993 239.933 26.1426993 239.933 15.4746993 250.411 26.1436993 274.064 26.1436993 261.609 13.3066993 273.885 1.28469927 251.226 1.28469927 239.933 12.1326993 239.933 1.28469927"></polygon>
            </g>
            <g id="Gruppe_3" transform="translate(45.804, 38.6517)">
                <path d="M3.859,12.763 L3.859,7.518 L0,0.656 L0.973,0.656 L2.973,4.272 C3.481,5.224 3.925,5.995 4.337,6.872 L4.369,6.872 C4.75,6.047 5.236,5.201 5.775,4.25 L7.837,0.655 L8.81,0.655 L4.71,7.538 L4.71,12.772 L3.864,12.772 L3.859,12.763 Z" id="Pfad_6"></path>
                <path d="M16.579,8.364 C16.579,11.599 14.369,12.964 12.445,12.964 C10.214,12.964 8.491,11.219 8.491,8.523 C8.491,5.562 10.437,3.94499958 12.572,3.94499958 C14.961,3.944 16.579,5.72 16.579,8.364 Z M9.357,8.47 C9.357,10.627 10.742,12.245 12.497,12.245 C14.252,12.245 15.711,10.627 15.711,8.417 C15.711,6.831 14.811,4.642 12.55,4.642 C10.289,4.642 9.35,6.619 9.35,8.47 L9.357,8.47 Z" id="Pfad_7"></path>
                <path d="M25.405,10.658 C25.405,11.409 25.437,12.096 25.479,12.758 L24.686,12.758 L24.633,11.225 L24.605,11.225 C24.0106226,12.300803 22.8729906,12.9627888 21.644,12.948 C20.544,12.948 18.715,12.409 18.715,9.142 L18.715,4.134 L19.561,4.134 L19.561,8.987 C19.561,10.858 20.153,12.201 21.866,12.201 C22.9847877,12.1792395 23.983189,11.4934531 24.405,10.457 C24.5123756,10.150482 24.5730539,9.82956142 24.585,9.505 L24.585,4.134 L25.431,4.134 L25.431,10.658 L25.405,10.658 Z" id="Pfad_8"></path>
                <path d="M28.316,6.725 C28.316,5.858 28.284,4.959 28.242,4.134 L29.035,4.134 L29.067,5.879 L29.099,5.879 C29.4197739,4.77233999 30.4108611,3.9937148 31.562,3.944 C31.668,3.944 31.795,3.965 31.9,3.976 L31.9,4.801 C31.764514,4.77336846 31.6261277,4.76262002 31.488,4.769 C30.304,4.769 29.458,5.795 29.225,7.18 C29.1831804,7.45319104 29.1584656,7.7287275 29.151,8.005 L29.151,12.764 L28.305,12.764 L28.305,6.725 L28.316,6.725 Z" id="Pfad_9"></path>
                <path d="M46.259,12.223 C45.1390734,12.6693285 43.9435717,12.8954586 42.738,12.889 C41.1477157,12.9696628 39.5945775,12.3908086 38.445,11.289 C37.315302,10.0512534 36.7223238,8.41615831 36.796,6.742 C36.7107502,5.05164957 37.3517232,3.40540087 38.5575404,2.2177321 C39.7633575,1.03006334 41.4191366,0.414127659 43.108,0.525 C44.0754917,0.515024207 45.0352422,0.698270946 45.931,1.064 L45.656,1.783 C44.8444358,1.41098213 43.9572154,1.23360654 43.065,1.265 C41.5964193,1.16218441 40.1559813,1.70469227 39.1200996,2.75075603 C38.0842179,3.7968198 37.555825,5.24249521 37.673,6.71 C37.673,9.998 39.682,12.155 42.886,12.155 C43.7519656,12.205232 44.618392,12.0645828 45.424,11.743 L45.424,7.465 L42.601,7.465 L42.601,6.765 L46.27,6.765 L46.27,12.231 L46.259,12.223 Z" id="Pfad_10"></path>
                <polygon id="Pfad_11" points="48.775 7.10542736e-15 49.621 7.10542736e-15 49.621 12.762 48.775 12.762"></polygon>
                <path d="M59.952,8.364 C59.952,11.599 57.742,12.964 55.818,12.964 C53.587,12.964 51.864,11.219 51.864,8.523 C51.864,5.562 53.81,3.94499958 55.945,3.94499958 C58.334,3.944 59.952,5.72 59.952,8.364 Z M52.73,8.47 C52.73,10.627 54.115,12.245 55.87,12.245 C57.625,12.245 59.084,10.627 59.084,8.417 C59.084,6.831 58.184,4.642 55.923,4.642 C53.662,4.642 52.723,6.619 52.723,8.47 L52.73,8.47 Z" id="Pfad_12"></path>
                <path d="M62.151,0 L62.997,0 L62.997,5.731 L63.029,5.731 C63.6333203,4.55804407 64.8728751,3.85219192 66.19,3.931 C68.368,3.931 69.87,5.75 69.87,8.351 C69.87,11.428 67.914,12.951 66.021,12.951 C64.7343437,13.0202153 63.5264768,12.3292231 62.934,11.185 L62.902,11.185 L62.849,12.75 L62.077,12.75 C62.109,12.137 62.151,11.386 62.151,10.741 L62.151,0 L62.151,0 Z M62.997,9.432 C63.0013592,9.64190851 63.0261428,9.85089414 63.071,10.056 C63.4122075,11.3450673 64.5815556,12.2405808 65.915,12.234036 C67.892,12.234036 69.024,10.616 69.024,8.375 C69.024,6.398 67.946,4.632 65.989,4.632 C64.6196994,4.67240474 63.4444594,5.61880798 63.113,6.948 C63.0450444,7.1926348 63.0094082,7.4451135 63.007,7.699 L63.007,9.422 L62.997,9.432 Z" id="Pfad_13"></path>
                <path d="M77.429,10.721 C77.4232605,11.4067969 77.4656983,12.0921501 77.556,12.772 L76.784,12.772 L76.658,11.536 L76.605,11.536 C75.9941684,12.453116 74.9577095,12.9952869 73.856,12.974 C73.1984699,13.0237479 72.5501142,12.7961333 72.0679737,12.3462875 C71.5858332,11.8964417 71.3138855,11.2653965 71.317954,10.606 C71.317954,8.606 73.084,7.406 76.584,7.445 L76.584,7.234 C76.584,6.367 76.425,4.665 74.374,4.686 C73.6056558,4.67317569 72.8521763,4.89848598 72.217,5.331 L71.953,4.707 C72.7044654,4.22660519 73.5771083,3.96994551 74.469,3.967 C76.969,3.967 77.43,5.838 77.43,7.382 L77.43,10.744 L77.429,10.721 Z M76.583,8.152 C74.69,8.099 72.216,8.385 72.216,10.457 C72.1719846,10.9329527 72.336528,11.4046042 72.6670474,11.7498944 C72.9975668,12.0951845 73.4615787,12.2801781 73.939,12.257 C75.0743385,12.3037879 76.1075876,11.6050877 76.487,10.534 C76.539303,10.3661307 76.5679125,10.1917811 76.572,10.016 L76.572,8.165 L76.583,8.152 Z" id="Pfad_14"></path>
                <polygon id="Pfad_15" points="80.232 7.10542736e-15 81.078 7.10542736e-15 81.078 12.762 80.232 12.762"></polygon>
                <path d="M89.43,8.522 L87.939,12.762 L87.061,12.762 L91.449,0.645 L92.274,0.645 L96.641,12.762 L95.763,12.762 L94.24,8.522 L89.44,8.522 L89.43,8.522 Z M93.955,7.803 L92.485,3.753 C92.2,2.907 92.041,2.294 91.851,1.617 L91.819,1.617 C91.639,2.317 91.438,2.949 91.185,3.717 L89.694,7.798 L93.955,7.803 Z" id="Pfad_16"></path>
                <path d="M104.942,10.658 C104.942,11.409 104.974,12.096 105.016,12.758 L104.219,12.758 L104.166,11.225 L104.134,11.225 C103.539623,12.300803 102.401991,12.9627888 101.173,12.948 C100.073,12.948 98.244,12.409 98.244,9.142 L98.244,4.134 L99.09,4.134 L99.09,8.987 C99.09,10.858 99.682,12.201 101.39,12.201 C102.508664,12.178675 103.506642,11.4925163 103.928,10.456 C104.035376,10.149482 104.096054,9.82856142 104.108,9.504 L104.108,4.134 L104.954,4.134 L104.954,10.658 L104.942,10.658 Z" id="Pfad_17"></path>
                <path d="M109.045,2.231 L109.045,4.131 L111.509,4.131 L111.509,4.818 L109.045,4.818 L109.045,10.418 C109.045,11.518 109.383,12.218 110.303,12.218 C110.640213,12.2236003 110.976045,12.1735972 111.297,12.07 L111.403,12.736 C111.02005,12.8882133 110.609885,12.9600347 110.198,12.947 C109.637226,12.9812157 109.092922,12.7501643 108.728,12.323 C108.313202,11.7237744 108.1224,10.9977363 108.189,10.272 L108.189,4.811 L106.729,4.811 L106.729,4.124 L108.188,4.124 L108.188,2.538 L109.055,2.21 L109.045,2.231 Z" id="Pfad_18"></path>
                <path d="M120.675,8.364 C120.675,11.599 118.465,12.964 116.541,12.964 C114.31,12.964 112.587,11.219 112.587,8.523 C112.587,5.562 114.533,3.94499958 116.668,3.94499958 C119.057,3.944 120.675,5.72 120.675,8.364 Z M113.453,8.47 C113.453,10.627 114.838,12.245 116.593,12.245 C118.348,12.245 119.807,10.627 119.807,8.417 C119.807,6.831 118.907,4.642 116.646,4.642 C114.385,4.642 113.446,6.619 113.446,8.47 L113.453,8.47 Z" id="Pfad_19"></path>
                <path d="M122.864,6.207 C122.864,5.414 122.832,4.822 122.79,4.135 L123.583,4.135 L123.657,5.668 L123.689,5.668 C124.187431,4.58867989 125.281643,3.91074872 126.47,3.945 C127.623474,3.95348725 128.634245,4.71898863 128.955,5.827 L128.987,5.827 C129.194598,5.38188722 129.493781,4.98558821 129.865,4.664 C130.438691,4.16884839 131.179911,3.91163924 131.937,3.945 C132.783,3.945 134.737,4.41 134.737,7.688 L134.737,12.774 L133.891,12.774 L133.891,7.774 C133.891,5.828 133.14,4.687 131.649,4.687 C130.609571,4.72551068 129.705234,5.41005748 129.386,6.4 C129.287659,6.6715626 129.233964,6.95726372 129.227,7.246 L129.227,12.787 L128.381,12.787 L128.381,7.391 C128.381,5.826 127.63,4.691 126.245,4.691 C125.113429,4.75996052 124.151867,5.54288926 123.855,6.637 C123.760374,6.90192096 123.710362,7.1807069 123.707,7.462 L123.707,12.78 L122.861,12.78 L122.861,6.228 L122.864,6.207 Z" id="Pfad_20"></path>
                <path d="M142.942,10.721 C142.936228,11.4067978 142.978665,12.0921532 143.069,12.772 L142.297,12.772 L142.17,11.535 L142.117,11.535 C141.506039,12.4519725 140.469665,12.9940991 139.368,12.973 C138.71047,13.0227479 138.062114,12.7951333 137.579974,12.3452875 C137.097833,11.8954417 136.825885,11.2643965 136.829954,10.605 C136.829954,8.605 138.596,7.405 142.096,7.444 L142.096,7.233 C142.096,6.366 141.937,4.664 139.886,4.685 C139.117656,4.67217569 138.364176,4.89748598 137.729,5.33 L137.465,4.706 C138.216752,4.22542313 139.089768,3.96875584 139.982,3.966 C142.482,3.966 142.943,5.837 142.943,7.381 L142.943,10.743 L142.942,10.721 Z M142.096,8.152 C140.203,8.099 137.729,8.385 137.729,10.457 C137.684953,10.9331348 137.849627,11.4049615 138.180374,11.7502888 C138.51112,12.0956162 138.975409,12.2804781 139.453,12.257 C140.588339,12.3037879 141.621588,11.6050877 142.001,10.534 C142.05329,10.3661277 142.0819,10.1917799 142.086,10.016 L142.086,8.165 L142.096,8.152 Z" id="Pfad_21"></path>
                <path d="M146.933,2.231 L146.933,4.131 L149.397,4.131 L149.397,4.818 L146.933,4.818 L146.933,10.418 C146.933,11.518 147.271,12.218 148.191,12.218 C148.524617,12.2236754 148.856844,12.1736556 149.174,12.07 L149.28,12.736 C148.897042,12.8881858 148.486883,12.9600061 148.075,12.947 C147.514226,12.9812157 146.969922,12.7501643 146.605,12.323 C146.190281,11.7237382 145.999487,10.9977291 146.066,10.272 L146.066,4.811 L144.603,4.811 L144.603,4.124 L146.062,4.124 L146.062,2.538 L146.929,2.21 L146.933,2.231 Z" id="Pfad_22"></path>
                <path d="M152.417,1.671 C152.42829,1.86682744 152.356898,2.05840756 152.220208,2.19909022 C152.083517,2.33977288 151.894071,2.41664933 151.698,2.411 C151.511173,2.40223305 151.335624,2.31906498 151.210506,2.18004474 C151.085388,2.0410245 151.021107,1.85771512 151.032,1.671 C151.020162,1.27115982 151.332315,0.936263782 151.732,0.92 C151.922778,0.927761098 152.102527,1.01150505 152.231198,1.15257341 C152.359868,1.29364177 152.426771,1.4803144 152.417,1.671 L152.417,1.671 Z M151.307,12.763 L151.307,4.134 L152.153,4.134 L152.153,12.762 L151.307,12.763 Z" id="Pfad_23"></path>
                <path d="M162.43,8.364 C162.43,11.599 160.22,12.964 158.296,12.964 C156.065,12.964 154.341,11.219 154.341,8.523 C154.341,5.562 156.287,3.945 158.422,3.945 C160.812,3.945 162.429,5.721 162.429,8.365 L162.43,8.364 Z M155.208,8.47 C155.208,10.627 156.593,12.245 158.348,12.245 C160.103,12.245 161.562,10.627 161.562,8.417 C161.562,6.831 160.662,4.642 158.401,4.642 C156.14,4.642 155.201,6.619 155.201,8.47 L155.208,8.47 Z" id="Pfad_24"></path>
                <path d="M164.615,6.206 C164.615,5.413 164.583,4.821 164.541,4.134 L165.334,4.134 L165.408,5.699 L165.44,5.699 C166.00404,4.58875635 167.15609,3.90165053 168.401,3.933 C169.226,3.933 171.401,4.345 171.401,7.581 L171.401,12.763 L170.555,12.763 L170.555,7.655 C170.555,6.09 169.942,4.673 168.165,4.673 C166.96368,4.69950232 165.916777,5.49831568 165.574,6.65 C165.491607,6.89912103 165.448754,7.1596131 165.447,7.422 L165.447,12.763 L164.601,12.763 L164.601,6.206 L164.615,6.206 Z" id="Pfad_25"></path>
                <path d="M178.205,0.793 C179.058401,0.626757642 179.926631,0.548680628 180.796,0.56 C181.955854,0.469868285 183.104793,0.838246633 183.996,1.586 C184.618606,2.21375472 184.955015,3.07032992 184.926,3.954 C184.961737,4.83613924 184.659105,5.69860367 184.08,6.365 C183.143703,7.31082425 181.845543,7.8077904 180.517,7.729 C180.022487,7.74873805 179.527653,7.69891803 179.047,7.581 L179.047,12.762 L178.201,12.762 L178.205,0.793 Z M179.051,6.83 C179.554745,6.96175719 180.074455,7.02234516 180.595,7.01 C182.752,7.01 184.063,5.953 184.063,4.028 C184.063,2.103 182.678,1.28 180.755,1.28 C180.180426,1.27017117 179.606374,1.31976813 179.042,1.428 L179.042,6.842 L179.051,6.83 Z" id="Pfad_26"></path>
                <path d="M192.036,10.721 C192.030244,11.4067974 192.072682,12.0921516 192.163,12.772 L191.391,12.772 L191.264,11.535 L191.211,11.535 C190.600168,12.452116 189.56371,12.9942869 188.462,12.973 C187.80447,13.0227479 187.156114,12.7951333 186.673974,12.3452875 C186.191833,11.8954417 185.919885,11.2643965 185.923954,10.605 C185.923954,8.605 187.69,7.405 191.19,7.444 L191.19,7.233 C191.19,6.366 191.031,4.664 188.98,4.685 C188.211647,4.67211 187.458148,4.8974261 186.823,5.33 L186.559,4.706 C187.310072,4.22543494 188.18235,3.9684338 189.074,3.965 C191.574,3.965 192.035,5.836 192.035,7.38 L192.035,10.742 L192.036,10.721 Z M191.19,8.152 C189.297,8.099 186.823,8.385 186.823,10.457 C186.778985,10.9329527 186.943528,11.4046042 187.274047,11.7498944 C187.604567,12.0951845 188.068579,12.2801781 188.546,12.257 C189.681339,12.3037879 190.714588,11.6050877 191.094,10.534 C191.14629,10.3661277 191.1749,10.1917799 191.179,10.016 L191.179,8.165 L191.19,8.152 Z" id="Pfad_27"></path>
                <path d="M194.838,6.725 C194.838,5.858 194.806,4.959 194.764,4.134 L195.557,4.134 L195.589,5.879 L195.621,5.879 C195.941892,4.77200331 196.933487,3.99329548 198.085,3.944 C198.191,3.944 198.318,3.965 198.423,3.976 L198.423,4.801 C198.287514,4.77336846 198.149128,4.76262002 198.011,4.769 C196.827,4.769 195.981,5.795 195.748,7.18 C195.70618,7.45319104 195.681466,7.7287275 195.674,8.005 L195.674,12.764 L194.828,12.764 L194.828,6.725 L194.838,6.725 Z" id="Pfad_28"></path>
                <path d="M201.795,2.231 L201.795,4.131 L204.259,4.131 L204.259,4.818 L201.795,4.818 L201.795,10.418 C201.795,11.518 202.133,12.218 203.053,12.218 C203.386617,12.2236754 203.718844,12.1736556 204.036,12.07 L204.142,12.736 C203.759042,12.8881858 203.348883,12.9600061 202.937,12.947 C202.376254,12.9810575 201.832017,12.7500347 201.467,12.323 C201.052281,11.7237382 200.861487,10.9977291 200.928,10.272 L200.928,4.811 L199.469,4.811 L199.469,4.124 L200.928,4.124 L200.928,2.538 L201.795,2.21 L201.795,2.231 Z" id="Pfad_29"></path>
                <path d="M206.162,6.206 C206.162,5.413 206.13,4.821 206.088,4.134 L206.881,4.134 L206.955,5.699 L206.987,5.699 C207.550884,4.58908819 208.702448,3.90204036 209.947,3.933 C210.772,3.933 212.947,4.345 212.947,7.581 L212.947,12.763 L212.101,12.763 L212.101,7.655 C212.101,6.09 211.488,4.673 209.711,4.673 C208.510052,4.69993135 207.463664,5.49866033 207.121,6.65 C207.038607,6.89912103 206.995754,7.1596131 206.994,7.422 L206.994,12.763 L206.148,12.763 L206.148,6.206 L206.162,6.206 Z" id="Pfad_30"></path>
                <path d="M215.922,8.364 C215.922,11.134 217.434,12.213 219.21,12.213 C220.034499,12.2498489 220.855371,12.0829267 221.6,11.727 L221.811,12.414 C220.96527,12.8215689 220.031964,13.0139323 219.094,12.974 C216.609,12.974 215.066,11.155 215.066,8.628 C215.066,5.752 216.716,3.955 218.947,3.955 C221.77,3.955 222.309,6.62 222.309,7.855 C222.317417,8.02831807 222.306686,8.20203577 222.277,8.373 L215.912,8.373 L215.922,8.364 Z M221.422,7.677 C221.443,6.472 220.936,4.642 218.853,4.642 C216.953,4.642 216.125,6.355 215.977,7.677 L221.422,7.677 Z" id="Pfad_31"></path>
                <path d="M224.517,6.725 C224.517,5.858 224.485,4.959 224.443,4.134 L225.236,4.134 L225.268,5.879 L225.3,5.879 C225.620774,4.77233999 226.611861,3.9937148 227.763,3.944 C227.869,3.944 227.996,3.965 228.101,3.976 L228.101,4.801 C227.965514,4.77336846 227.827128,4.76262002 227.689,4.769 C226.505,4.769 225.659,5.795 225.426,7.18 C225.384196,7.45319292 225.359481,7.72872841 225.352,8.005 L225.352,12.764 L224.506,12.764 L224.506,6.725 L224.517,6.725 Z" id="Pfad_32"></path>
            </g>
        </g>
    </g>
</svg>
